<svg width="150" height="150" version="1.1" xmlns="http://www.w3.org/2000/svg" desc="Created with imagetracer.js version 1.2.6" ><path fill="rgb(0,0,0)" stroke="rgb(0,0,0)" stroke-width="1" opacity="0" d="M 0 0 L 73 0.5 Q 55.8 21.3 55 58.5 L 56 59.5 L 56 69.5 L 58 79.5 L 62 91.5 L 87 142.5 L 92 149.5 L 58.5 150 L 60 147.5 L 65 130.5 L 65 112.5 L 59 90.5 Q 53.3 76.3 42.5 67 L 37 69.5 L 0.5 143 L 0 0 Z " /><path fill="rgb(0,0,0)" stroke="rgb(0,0,0)" stroke-width="1" opacity="0" d="M 78 0 L 150 0 L 150 142.5 L 149 142.5 L 78 0 Z " /><path fill="rgb(0,0,0)" stroke="rgb(0,0,0)" stroke-width="1" opacity="0" d="M 0.5 148 L 1.5 150 Q -1.3 150.7 0.5 148 Z " /><path fill="rgb(0,0,0)" stroke="rgb(0,0,0)" stroke-width="1" opacity="0" d="M 149.5 148 L 150 150 L 148 149.5 L 149.5 148 Z " /><path fill="rgb(39,131,254)" stroke="rgb(39,131,254)" stroke-width="1" opacity="0.5019607843137255" d="M 73.5 0 L 75 0.5 L 71 3.5 L 69.5 6 L 70 4.5 L 73.5 0 Z " /><path fill="rgb(39,131,254)" stroke="rgb(39,131,254)" stroke-width="1" opacity="0.5019607843137255" d="M 78.5 2 L 150 143.5 L 150 147.5 L 146.5 150 L 146.5 149 L 149 147.5 L 149 143.5 L 78.5 2 Z " /><path fill="rgb(39,131,254)" stroke="rgb(39,131,254)" stroke-width="1" opacity="0.5019607843137255" d="M 63.5 17 L 64 18.5 L 62.5 21 L 62 19.5 L 63.5 17 Z " /><path fill="rgb(39,131,254)" stroke="rgb(39,131,254)" stroke-width="1" opacity="0.5019607843137255" d="M 58.5 32 L 59 34.5 L 58 34.5 L 58.5 32 Z " /><path fill="rgb(39,131,254)" stroke="rgb(39,131,254)" stroke-width="1" opacity="0.5019607843137255" d="M 57.5 36 L 58 39.5 L 57 39.5 L 57.5 36 Z " /><path fill="rgb(39,131,254)" stroke="rgb(39,131,254)" stroke-width="1" opacity="0.5019607843137255" d="M 56.5 42 L 57 47.5 L 56 47.5 L 56.5 42 Z " /><path fill="rgb(39,131,254)" stroke="rgb(39,131,254)" stroke-width="1" opacity="0.5019607843137255" d="M 55.5 52 L 56 58.5 L 55 58.5 L 55.5 52 Z " /><path fill="rgb(39,131,254)" stroke="rgb(39,131,254)" stroke-width="1" opacity="0.5019607843137255" d="M 56.5 62 L 57 69.5 L 56 69.5 L 56.5 62 Z " /><path fill="rgb(39,131,254)" stroke="rgb(39,131,254)" stroke-width="1" opacity="0.5019607843137255" d="M 40.5 67 L 44 68.5 L 42.5 68 Q 39.5 68.5 40.5 67 Z " /><path fill="rgb(39,131,254)" stroke="rgb(39,131,254)" stroke-width="1" opacity="0.5019607843137255" d="M 38.5 68 L 37.5 70 L 38.5 68 Z " /><path fill="rgb(39,131,254)" stroke="rgb(39,131,254)" stroke-width="1" opacity="0.5019607843137255" d="M 45.5 70 L 48.5 74 L 45.5 70 Z " /><path fill="rgb(39,131,254)" stroke="rgb(39,131,254)" stroke-width="1" opacity="0.5019607843137255" d="M 57.5 71 L 58 74.5 L 57 74.5 L 57.5 71 Z " /><path fill="rgb(39,131,254)" stroke="rgb(39,131,254)" stroke-width="1" opacity="0.5019607843137255" d="M 50.5 76 L 51.5 78 L 50.5 76 Z " /><path fill="rgb(39,131,254)" stroke="rgb(39,131,254)" stroke-width="1" opacity="0.5019607843137255" d="M 58.5 76 L 60 82.5 L 59 82.5 L 58.5 76 Z " /><path fill="rgb(39,131,254)" stroke="rgb(39,131,254)" stroke-width="1" opacity="0.5019607843137255" d="M 62.5 90 L 65 95.5 L 64 95.5 L 62.5 90 Z " /><path fill="rgb(39,131,254)" stroke="rgb(39,131,254)" stroke-width="1" opacity="0.5019607843137255" d="M 65.5 97 L 69 103.5 L 67 102.5 L 65.5 97 Z " /><path fill="rgb(39,131,254)" stroke="rgb(39,131,254)" stroke-width="1" opacity="0.5019607843137255" d="M 63.5 106 L 64 108.5 L 63 108.5 L 63.5 106 Z " /><path fill="rgb(39,131,254)" stroke="rgb(39,131,254)" stroke-width="1" opacity="0.5019607843137255" d="M 64.5 112 L 65 116.5 L 64 116.5 L 64.5 112 Z " /><path fill="rgb(39,131,254)" stroke="rgb(39,131,254)" stroke-width="1" opacity="0.5019607843137255" d="M 64.5 126 L 65 130.5 L 64 130.5 L 64.5 126 Z " /><path fill="rgb(39,131,254)" stroke="rgb(39,131,254)" stroke-width="1" opacity="0.5019607843137255" d="M 81.5 129 L 89 143.5 L 87 142.5 L 81 130.5 L 81.5 129 Z " /><path fill="rgb(39,131,254)" stroke="rgb(39,131,254)" stroke-width="1" opacity="0.5019607843137255" d="M 63.5 134 L 64 136.5 L 63 136.5 L 63.5 134 Z " /><path fill="rgb(39,131,254)" stroke="rgb(39,131,254)" stroke-width="1" opacity="0.5019607843137255" d="M 0.5 146 L 2.5 149 L 4 149.5 L 2.5 150 Q -1.1 148.9 0.5 146 Z " /><path fill="rgb(39,131,254)" stroke="rgb(39,131,254)" stroke-width="1" opacity="0.5019607843137255" d="M 59.5 147 L 57.5 150 L 59.5 147 Z " /><path fill="rgb(39,131,254)" stroke="rgb(39,131,254)" stroke-width="1" opacity="0.5019607843137255" d="M 90.5 147 L 94 149.5 L 92.5 150 L 90.5 147 Z " /><path fill="rgb(37,131,254)" stroke="rgb(37,131,254)" stroke-width="1" opacity="1" d="M 13.5 119 L 14 121 L 20 123 L 20 125 L 24 125 L 24 127 L 28 127 Q 26.9 129.7 29.5 129 Q 30.6 131.8 34 131 L 34 133 L 38 133 L 38 135 L 41 135 L 41 137 Q 45.1 135.7 44 139 L 47.5 139 Q 46.7 142.3 52 141 L 52 143 L 55 143 L 55 145 Q 58.8 143.5 58 146.5 Q 60.8 148.3 56.5 150 L 42.5 150 L 40 149 L 40 147 L 36 147 L 36 145 L 32 145 Q 33.1 142.3 30.5 143 L 26 141 L 26 139 L 22 139 L 22 137 L 18 137 Q 19.1 134.3 16.5 135 Q 15.4 132.3 12 133 Q 13.2 129.3 8 131 L 8 128.5 L 13.5 119 Z " /><path fill="rgb(38,132,255)" stroke="rgb(38,132,255)" stroke-width="1" opacity="1" d="M 75.5 0 L 78 1 L 149 143.5 L 149 147.5 L 145.5 150 L 94.5 150 L 90 146.5 L 62 89.5 L 57 70.5 L 56 48.5 L 57 47.5 L 57 40.5 L 59 30.5 L 62 21.5 L 69 6.5 L 73.5 1 L 75.5 0 Z " /><path fill="rgb(38,132,255)" stroke="rgb(38,132,255)" stroke-width="1" opacity="1" d="M 7.5 130 L 12 131 Q 10.8 134 14.5 133 L 18 135 L 18 137 L 22 137 L 22 139 L 26 139 Q 24.9 141.7 27.5 141 L 32 143 L 32 145 L 36 145 L 36 147 L 40 147 Q 38.9 149.7 41.5 149 L 41.5 150 L 4.5 150 L 1 147.5 L 0 145.5 L 7.5 130 Z " /><path fill="rgb(8,92,214)" stroke="rgb(8,92,214)" stroke-width="1" opacity="0.9568627450980393" d="M 39.5 68 L 45 69 L 54 81.5 Q 60.1 91.4 63 104.5 L 60 105 Q 61.1 102.3 58.5 103 L 54 101 L 54 99 L 50 99 L 50 97 L 47 97 L 47 95 Q 42.9 96.3 44 93 L 40 93 L 40 91 Q 34.7 92.3 35.5 89 L 32.5 89 L 32.5 87 Q 28.8 88.3 30 84.5 L 39.5 68 Z " /><path fill="rgb(27,118,241)" stroke="rgb(27,118,241)" stroke-width="1" opacity="0.9882352941176471" d="M 20.5 105 L 26 107 L 26 109 Q 31.3 107.8 30.5 111 L 33.5 111 L 33.5 113 L 40 115 L 40 117 L 44 117 L 44 119 L 48 119 Q 46.9 121.7 49.5 121 Q 50.6 123.8 54 123 Q 52.8 126 56.5 125 L 61 127.5 L 60.5 129 Q 66.2 127.2 64 133.5 L 60 147 Q 57 148 58 145 L 55 145 L 55 143 L 52 143 L 52 141 L 48.5 141 Q 49.3 137.8 44 139 L 44 137 L 41 137 L 41 135 Q 36.9 136.3 38 133 L 34 133 Q 35.3 130 31.5 131 L 28 129 L 28 127 L 24 127 L 24 125 L 20 125 Q 21.3 122 17.5 123 L 14 121 L 13 118.5 L 20.5 105 Z " /><path fill="rgb(18,106,229)" stroke="rgb(18,106,229)" stroke-width="1" opacity="0.9882352941176471" d="M 29.5 86 L 33 87.5 L 32.5 89 L 35.5 89 Q 34.7 92.3 40 91 L 40 93 L 44 93 L 44 95 L 47 95 L 47 97 L 50 97 L 50 99 L 54 99 Q 52.9 101.7 55.5 101 L 60 103 Q 58.9 106.3 63 105 L 63 108.5 L 65 117.5 L 65 125.5 L 64 129 L 60 128.5 L 60.5 127 L 54 125 Q 55.3 122 51.5 123 L 48 121 L 48 119 L 44 119 L 44 117 L 40 117 Q 41.3 114 37.5 115 L 33 112.5 L 33.5 111 L 30 111 L 30 109 L 26 109 Q 27.1 106.3 24.5 107 L 20 104.5 L 29.5 86 Z " /></svg>