<svg width="206" height="150" version="1.1" xmlns="http://www.w3.org/2000/svg" desc="Created with imagetracer.js version 1.2.6" ><path fill="rgb(35,85,216)" stroke="rgb(35,85,216)" stroke-width="1" opacity="0.996078431372549" d="M 56.5 23 L 65.5 24 L 69 26 L 69 28 L 71 28 L 71 30 L 73 30 L 73 32 Q 75.7 30.9 75 33.5 L 75.5 36 Q 77.8 35.3 77 37.5 L 81 46.5 L 81 48.5 L 84 59.5 L 87 64.5 L 90 78.5 L 90 80.5 L 91 82.5 L 91 84.5 Q 89.2 90.8 92 92.5 L 92 94.5 L 101 114.5 L 105 130.5 L 104.5 133 L 99 126.5 L 92 111.5 L 83 81.5 Q 84.6 70.9 81 65.5 L 81 63.5 L 78 53.5 L 78 51.5 L 77 46.5 L 69 32 L 62.5 28 L 50 28 L 50 30 L 46 30 Q 47.3 33 43.5 32 L 39.5 35 L 37 30.5 L 44.5 26 L 56.5 23 Z " /><path fill="rgb(35,85,216)" stroke="rgb(35,85,216)" stroke-width="1" opacity="0.996078431372549" d="M 183.5 23 Q 189.6 22.3 192 24 L 195 30.5 L 195 34 L 197 34.5 L 197 36.5 L 198 38.5 L 197.5 40 L 199 40.5 L 199 42.5 L 200 46.5 L 200 48.5 L 201 50.5 L 201 52.5 L 201 62.5 L 200 63.5 L 200 65.5 L 198 71.5 L 198 73.5 L 193 83.5 L 193 87 L 191 87.5 L 191 89.5 L 185 101 Q 182.3 99.9 183 102.5 L 176.5 110 L 174 111.5 L 171.5 115 Q 168.9 114.3 170 117 L 167 117 L 167 119 Q 161.7 117.8 162.5 121 L 159.5 121 L 154.5 122 L 147.5 121 L 140 117 L 140 115 Q 137.3 116.1 138 113.5 L 135 108.5 L 137.5 108 L 143 111 L 143 113 Q 147.1 111.7 146 115 L 150 115 L 150 117 L 160.5 117 L 166.5 113 L 169 113 L 169 111 L 171 111 L 171 109 L 173 109 L 173 107 L 175 107 L 175 105 Q 177.7 106.1 177 103.5 L 179 99 Q 181.7 100.1 181 97.5 L 183 93 Q 185.7 94.1 185 91.5 L 194 72.5 L 194 70.5 L 195 68.5 L 195 66.5 Q 193.7 61.7 196 60.5 L 195 51.5 L 194 47.5 L 194.5 44 L 193 43.5 L 193 41.5 L 192 39.5 L 192.5 38 Q 190.3 38.8 191 36.5 L 190 33.5 L 189 30 Q 186.3 31.1 187 28.5 L 185 24 L 183.5 23 Z " /><path fill="rgb(47,103,250)" stroke="rgb(47,103,250)" stroke-width="1" opacity="0.9882352941176471" d="M 60.5 10 L 63.5 11 L 65.5 11 L 73 14 L 73 16 Q 75.7 14.9 75 17.5 L 79 22.5 L 79 24.5 L 82 32 L 86 34.5 L 91 41.5 L 91 44 Q 94.3 42.7 93 47.5 L 96 52.5 L 98 60.5 L 98 64.5 L 98 72.5 L 97 73.5 L 98 78.5 L 110 100.5 L 110 103.5 L 117 120.5 L 120 134.5 L 120 136.5 L 121 138.5 L 121 140.5 Q 122.3 146.6 119.5 146 L 117 145 L 116 139.5 L 116.5 136 L 115 135.5 L 115 131.5 L 114 127.5 L 114 125.5 L 113 123.5 L 113 121.5 L 112 119.5 L 112 117.5 Q 111.5 111 108 107.5 L 108.5 106 L 107 105.5 L 107 103.5 L 99 86 Q 95 87.4 97 80.5 L 95 77.5 L 95 75.5 L 94 71.5 Q 96.5 70 95 64.5 L 94 61.5 L 93 57.5 L 93 55.5 L 92 53.5 L 92.5 52 L 91 51.5 L 91 49.5 L 85 38 Q 82.3 39.1 83 36.5 L 79 28 Q 76.3 29.1 77 26.5 L 68.5 16 L 64.5 14 L 62.5 14 L 58.5 14 L 48 18 Q 49.4 22 42.5 20 L 37 22 Q 38.4 18 31.5 20 L 29 18.5 L 32.5 14 Q 34.5 16.8 39 16 L 39.5 18 L 46 18 Q 44.9 15.3 47.5 16 Q 52.3 11.3 60.5 10 Z " /><path fill="rgb(47,103,250)" stroke="rgb(47,103,250)" stroke-width="1" opacity="0.9882352941176471" d="M 122.5 72 L 126 83.5 L 124 88.5 L 125 93.5 Q 123.7 98.3 126 99.5 L 126 101.5 L 129 111.5 L 128.5 113 L 130 113.5 L 130 115.5 L 132 121 L 134 121 L 134 123 L 136 123 L 138 127 L 144 127 L 144.5 129 L 150.5 129 L 153.5 127 L 160.5 127 Q 162.5 124.2 167 125 Q 165.8 122 169.5 123 L 173 121 L 173 119 L 175 119 L 175 117 Q 177.7 118.1 177 115.5 L 180 111 Q 182.7 112.1 182 109.5 L 183 107 Q 185.7 108.1 185 105.5 L 189 99 L 194 97 L 195.5 93 L 196 94.5 Q 194.9 101.9 189.5 105 L 183 110.5 L 183 113 Q 180.3 111.9 181 114.5 L 179 119 Q 176.3 117.9 177 120.5 L 173 123 L 171 127 L 165.5 127 L 165 128.5 L 162.5 129 L 159.5 129 L 150.5 133 L 140 133 L 140 131 L 136 131 L 136 129 Q 132.2 130.5 133 127.5 L 130 123 Q 126.7 124.3 128 119.5 L 125 114.5 L 125 112.5 L 124 110.5 L 124 108.5 Q 125.8 102.3 123 100.5 L 123 98.5 L 121 88.5 L 121 82.5 L 122 79.5 L 122 75.5 L 122.5 72 Z " /><path fill="rgb(35,146,113)" stroke="rgb(35,146,113)" stroke-width="1" opacity="0.9686274509803922" d="M 120.5 17 L 127 18 L 127 20 L 130 20 L 130 22 Q 134.1 20.7 133 24 L 137 24 L 137 26 L 141 28 L 141 30.5 L 150 46.5 L 149.5 48 Q 152.5 47.1 151 51.5 L 155 57.5 L 155 60 Q 157.7 58.9 157 61.5 L 159.5 65 L 167 68.5 L 164.5 69 L 156 63.5 L 148 48.5 L 142.5 42 Q 134.7 40.7 133.5 46 L 134 44.5 L 133 40 L 131 39.5 L 131 37.5 Q 131.8 35.3 129.5 36 L 129.5 35 L 131 34.5 L 129 34 L 129 32 Q 126.3 33.1 127 30.5 L 126 30.5 L 125.5 32 L 124.5 30 L 124 32 L 119 31.5 L 123 30.5 L 116 30 Q 117.3 33.7 111.5 32 L 109 28.5 L 111 28 Q 109.8 25 113.5 26 L 117 23.5 L 116.5 22 Q 118.8 22.8 118 20.5 L 120.5 17 Z " /><path fill="rgb(35,146,113)" stroke="rgb(35,146,113)" stroke-width="1" opacity="0.9686274509803922" d="M 186.5 63 L 185.5 65 L 186.5 63 Z " /><path fill="rgb(35,146,113)" stroke="rgb(35,146,113)" stroke-width="1" opacity="0.9686274509803922" d="M 173.5 69 L 176 69.5 L 173.5 70 L 173.5 69 Z " /><path fill="rgb(85,225,96)" stroke="rgb(85,225,96)" stroke-width="1" opacity="0.9921568627450981" d="M 162 7 Q 166.5 6.2 168.5 9 L 179 19.5 L 189 38.5 L 191 45.5 L 191 54.5 Q 188.9 61.9 183.5 66 L 177.5 69 L 174.5 69 L 167 64 L 159 51.5 L 156 43.5 L 155 32.5 L 154 31.5 L 155 28.5 L 155 17.5 L 159 11 Q 161.7 12.1 161 9.5 L 162 7 Z " /><path fill="rgb(16,199,248)" stroke="rgb(16,199,248)" stroke-width="1" opacity="0.9764705882352941" d="M 14.5 23 L 25.5 23 Q 32.9 25.6 37 31.5 L 39 35.5 L 38 38.5 Q 38.8 40.8 36.5 40 L 36.5 41 L 38 41.5 L 36 42.5 L 38 43.5 L 36 44 L 36 48 L 34.5 48 L 34.5 49 L 36 49.5 L 34 50.5 L 36 51.5 L 32 52.5 L 34 53.5 L 32 54.5 L 36 55.5 L 32 56 Q 30.5 59.8 33.5 59 L 33.5 60 Q 31.3 59.3 32 61.5 L 31.5 64 L 28 64.5 L 31 65.5 L 28 66.5 L 30 67.5 L 28 68.5 L 30 69.5 L 28 70.5 L 30 71.5 L 26 72.5 L 28 73.5 L 26 74.5 L 28 75.5 L 26 76.5 L 28 77.5 L 25 78.5 L 28 79.5 L 24 80.5 L 26 81.5 L 24 82.5 L 26 83.5 L 24 84.5 L 26 85.5 L 24 86.5 L 26 87.5 L 24 88.5 L 26 89.5 L 24 90.5 L 26 91.5 L 24 92.5 L 26 93.5 L 24 94.5 L 26 95.5 L 24 96.5 L 24.5 99 L 26 99.5 L 24 100.5 L 26 101.5 L 24 102.5 L 26 103.5 L 24 104.5 L 26 105 L 27 107.5 L 26.5 111 L 28 111.5 L 28 113.5 Q 27.3 115.8 29.5 115 L 29.5 116 L 28 116.5 L 30 117.5 L 29.5 119 L 31 119.5 L 30.5 121 L 32 121.5 L 32 123.5 L 34 126.5 L 38 131.5 L 36 132.5 L 38 133.5 L 37.5 136 L 36 136.5 L 38 137.5 L 37.5 140 L 29 132.5 L 17 113.5 L 9 91.5 L 2 62.5 L 2 57.5 L 0 50.5 L 0 37.5 Q 2.1 29.6 8.5 26 L 14.5 23 Z " /><path fill="rgb(29,75,197)" stroke="rgb(29,75,197)" stroke-width="1" opacity="0.9764705882352941" d="M 181.5 23 L 185 24 L 187 30 Q 189.7 28.9 189 31.5 L 191 34.5 L 191 36.5 Q 190.3 38.8 192.5 38 L 193 40.5 L 194 42.5 L 193.5 44 L 195 44.5 L 195 48.5 L 196 52.5 L 195 61.5 Q 196.2 66.3 194 67.5 L 194 69.5 L 193 71.5 L 193 73.5 L 185 93 Q 182.3 91.9 183 94.5 L 181 99 Q 178.3 97.9 179 100.5 L 177 105 L 175 105 L 175 107 L 173 107 L 173 109 L 171 109 L 169 113 L 166.5 113 L 160.5 117 L 150 117 L 150 115 L 146 115 L 146 113 L 143 113 Q 144.1 110.3 141.5 111 L 138 108.5 Q 143.4 108.4 145.5 105 L 146 107 Q 149 106 148 109 L 152 109 L 152 111 L 159 111 L 159.5 109 L 160.5 111 L 161 109 L 165 109 L 167 105 L 170.5 105 L 170.5 103 L 173.5 101 L 173.5 99 L 176.5 97 L 176.5 95 Q 178.8 95.8 178 93.5 L 184 82.5 L 183.5 81 L 185 81 L 185 77 L 186.5 77 L 187 74.5 L 188 72.5 L 187.5 69 L 189 68.5 L 187 67.5 L 189 66.5 L 189 62.5 L 192 52.5 L 192 46.5 Q 188.7 32 181.5 23 Z " /><path fill="rgb(29,75,197)" stroke="rgb(29,75,197)" stroke-width="1" opacity="0.9764705882352941" d="M 50 28 L 62.5 28 L 69 32 L 79 52.5 L 79 54.5 L 82 64.5 L 82 66.5 L 83 78.5 L 82 78.5 L 75 52.5 L 69 42 L 66 41.5 L 66.5 40 Q 63.9 40.7 65 38 L 63 38 L 63 36 L 59 36 Q 60.1 32.7 56 34 L 55.5 36 L 54.5 34 L 53.5 36 L 51.5 36 L 48 36 Q 49.3 39 45.5 38 L 45.5 40 Q 41.1 38.5 42 41.5 L 40 42.5 Q 41.5 37 39 35.5 L 43.5 32 L 46 32 L 46 30 Q 51.2 31.7 50 28 Z " /><path fill="rgb(29,75,197)" stroke="rgb(29,75,197)" stroke-width="1" opacity="0.9764705882352941" d="M 41.5 48 L 42 50.5 L 41 50.5 L 41.5 48 Z " /><path fill="rgb(0,0,0)" stroke="rgb(0,0,0)" stroke-width="1" opacity="0" d="M 0 0 L 56 0.5 Q 38.9 4.4 30 16.5 L 25.5 23 Q 16.6 21.6 11.5 24 L 2 32.5 L 0.5 37 L 0 0 Z " /><path fill="rgb(0,0,0)" stroke="rgb(0,0,0)" stroke-width="1" opacity="0" d="M 73.5 0 L 131 0.5 Q 114.3 3.8 105 14.5 L 102.5 18 L 98.5 13 L 87.5 5 L 77.5 1 L 73.5 1 L 73.5 0 Z " /><path fill="rgb(0,0,0)" stroke="rgb(0,0,0)" stroke-width="1" opacity="0" d="M 149.5 0 L 206 0 L 206 37.5 L 205 37.5 Q 203.6 29.4 197.5 26 Q 192.4 21.6 181.5 23 L 179 20.5 L 168.5 9 Q 161.6 2.4 149.5 1 L 149.5 0 Z " /><path fill="rgb(0,0,0)" stroke="rgb(0,0,0)" stroke-width="1" opacity="0" d="M 63.5 42 L 67.5 42 L 72 46.5 L 80 68.5 L 81 79.5 L 75 99.5 L 68.5 108 Q 60.6 108.9 59 103.5 Q 50.7 91.3 47 74.5 L 57 49.5 L 63.5 42 Z " /><path fill="rgb(0,0,0)" stroke="rgb(0,0,0)" stroke-width="1" opacity="0" d="M 137.5 42 Q 144.8 40.8 146 45.5 Q 150.6 57.4 158.5 66 Q 161.3 65.4 160 71.5 L 152 94.5 L 143.5 107 L 136.5 108 L 130 97.5 L 124 74.5 L 131 50.5 L 137.5 42 Z " /><path fill="rgb(0,0,0)" stroke="rgb(0,0,0)" stroke-width="1" opacity="0" d="M 205.5 49 L 206 150 L 149 149.5 Q 167.8 145.8 177 132.5 Q 187.7 118.7 194 100.5 L 201 76.5 L 205.5 49 Z " /><path fill="rgb(0,0,0)" stroke="rgb(0,0,0)" stroke-width="1" opacity="0" d="M 0.5 51 L 4 72.5 L 14 106.5 Q 21.5 127 36.5 140 L 50.5 148 L 61 149.5 L 0 150 L 0.5 51 Z " /><path fill="rgb(0,0,0)" stroke="rgb(0,0,0)" stroke-width="1" opacity="0" d="M 102.5 132 L 109.5 140 L 123.5 148 L 131 149.5 L 72.5 150 L 72.5 149 Q 92.3 147.3 101 134.5 L 102.5 132 Z " /><path fill="rgb(53,191,123)" stroke="rgb(53,191,123)" stroke-width="1" opacity="0.984313725490196" d="M 131.5 0 L 148.5 0 Q 158 1.5 164 6.5 L 162 7 L 161 11 Q 158.3 9.9 159 12.5 L 155 17.5 L 155 28.5 L 154 29.5 L 155 32.5 L 155 39.5 L 159 51.5 L 167 64 L 174 68.5 L 170.5 70 Q 162.7 68.3 158 63.5 L 157 60 Q 154 61.3 155 57.5 Q 150.2 54.7 151 48 L 149 47.5 L 149 45.5 L 141 30.5 L 141 28 L 139 28 L 137 24 L 133 24 L 133 22 L 130 22 Q 131.1 18.7 127 20 L 127 18 L 121.5 18 L 119 17.5 L 119.5 16 L 118 15.5 L 118.5 14 L 117 13.5 L 117.5 12 L 115 11.5 L 115.5 10 L 111 9.5 L 123.5 2 L 131.5 0 Z " /><path fill="rgb(5,181,233)" stroke="rgb(5,181,233)" stroke-width="1" opacity="0.9882352941176471" d="M 38.5 36 L 40 37.5 L 41 52.5 L 46 74.5 L 48 76.5 Q 49.5 88 55 95.5 L 52 96 L 50 100 L 46.5 100 L 46.5 102 L 44 102 Q 45.1 104.7 42.5 104 L 42.5 105 L 44 105.5 L 42 106.5 L 42.5 108 L 40 108.5 L 42 109.5 L 40 110.5 L 42 111.5 L 40 112.5 L 40.5 117 L 42 117.5 L 41.5 119 L 43 119.5 L 42.5 121 Q 45.1 120.3 44 123 L 46 123 L 46 125 L 48 125 L 48 127 L 50.5 127 L 50.5 129 Q 53.1 128.3 52 131 L 54.5 131 L 58 133 L 60 137 L 62.5 137 L 72.5 143 L 76 143 L 76 145 L 80 145 Q 78.9 147.7 81.5 147 L 81.5 148 L 71.5 150 L 61.5 150 L 50.5 148 L 40 143 L 40 141 Q 37.3 142.1 38 139.5 L 37.5 137 L 36 136.5 L 38 135.5 L 37.5 133 L 36 132.5 L 38 131.5 L 34 125 Q 31.3 126.1 32 123.5 L 31.5 121 L 30 120.5 L 30.5 119 L 29 118.5 L 29.5 117 L 28 116.5 L 30 115.5 L 28 115 L 27 112.5 L 27.5 111 L 26 110.5 L 26 106.5 Q 26.8 104.3 24.5 105 L 24.5 104 L 26 103.5 L 24 102.5 L 26 101.5 L 24 100.5 L 26 99.5 L 24 98.5 L 24.5 96 L 26 95.5 L 24 94.5 L 26 93.5 L 24 92.5 L 26 91.5 L 24 90.5 L 26 89.5 L 24 88.5 L 26 87.5 L 24 86.5 L 26 85.5 L 24 84.5 L 26 83.5 L 24 82.5 L 26 81.5 L 24 80.5 L 28 79.5 L 25 78.5 L 28 77.5 L 26 76.5 L 28 75.5 L 26 74.5 L 28 73.5 L 26 72.5 L 30 71.5 L 28 70.5 L 30 69.5 L 28 68.5 L 30 67.5 L 28 66.5 L 31 65.5 L 28 64.5 L 32 63.5 L 32 61.5 Q 31.3 59.3 33.5 60 L 33.5 59 Q 30.5 59.7 32 56 L 36 55.5 L 32 54.5 L 34 53.5 L 32 52.5 L 36 51.5 L 34 50.5 L 36 49.5 L 34 48.5 L 36 48 L 36 44 L 37.5 44 L 37.5 43 L 36 42.5 L 38 41.5 L 36 40.5 L 38 40 L 39 37.5 L 38.5 36 Z " /><path fill="rgb(18,122,116)" stroke="rgb(18,122,116)" stroke-width="1" opacity="0.984313725490196" d="M 116 30 L 123 30.5 L 119 31.5 L 124 32 L 124.5 30 L 125.5 32 L 126.5 30 L 127 32 L 129 32 Q 127.9 34.7 130.5 34 L 130.5 35 L 129 35.5 L 131 36 L 132 38.5 L 131.5 40 Q 133.8 39.3 133 41.5 L 134 44.5 Q 127.4 56.9 125 73.5 L 123.5 75 L 117 47.5 L 111 32.5 L 116 32 L 116 30 Z " /><path fill="rgb(18,122,116)" stroke="rgb(18,122,116)" stroke-width="1" opacity="0.984313725490196" d="M 81.5 77 L 88 101.5 L 95 121 L 82.5 121 L 82 119 L 78 119 L 78 117 L 74 117 Q 75.1 114.3 72.5 115 L 72.5 112 Q 74.8 112.8 74 110.5 L 74.5 108 Q 76.8 108.8 76 106.5 L 76.5 104 Q 79.5 104.9 78 100.5 L 80 95.5 L 80 93.5 Q 78 82.5 81.5 77 Z " /><path fill="rgb(44,99,242)" stroke="rgb(44,99,242)" stroke-width="1" opacity="0.984313725490196" d="M 58.5 14 L 63.5 15 Q 65 12.5 66.5 16 L 68.5 16 L 75 22.5 L 77 28 Q 79.7 26.9 79 29.5 L 83 38 Q 85.7 36.9 85 39.5 L 92 50.5 L 91.5 52 L 93 52.5 L 93 54.5 L 94 56.5 L 94 58.5 L 95 62.5 L 95 64.5 Q 96.5 70 94 71.5 L 96 76.5 L 96 78.5 L 97 86 Q 99.7 84.9 99 87.5 L 108 104.5 L 107.5 106 L 109 106.5 L 109 108.5 L 113 118.5 L 113 120.5 L 114 122.5 L 114 124.5 L 115 126.5 L 115 128.5 L 116 132.5 L 115.5 136 L 117 136.5 L 117 140.5 Q 118.5 144.9 115.5 144 L 112 141.5 L 109 122.5 Q 105.7 119.3 106 112.5 L 94 87.5 L 94 85.5 Q 94.7 78.8 92 75.5 L 92 73.5 L 90 65.5 L 90 63.5 Q 89.1 48.9 81 41.5 L 81 39.5 Q 78.1 29.9 71.5 24 L 65.5 20 L 53.5 20 L 51.5 22 L 40.5 24 L 35.5 27 L 33.5 26 L 35.5 30 Q 32.3 25 26 24 L 28.5 19 L 37 20 Q 35.8 23 39.5 22 Q 42 18.8 48 20 Q 46.8 17 50.5 18 L 58.5 14 Z " /><path fill="rgb(44,99,242)" stroke="rgb(44,99,242)" stroke-width="1" opacity="0.984313725490196" d="M 197.5 26 Q 206 30.5 206 43.5 L 205 43.5 L 198 31.5 L 197.5 26 Z " /><path fill="rgb(44,99,242)" stroke="rgb(44,99,242)" stroke-width="1" opacity="0.984313725490196" d="M 197 83 Q 199.7 81.9 199 84.5 L 194 97 L 189 99 L 185 107 Q 182.3 105.9 183 108.5 L 182 111 Q 179.3 109.9 180 112.5 L 177 117 L 175 117 L 175 119 L 173 119 Q 174.1 121.7 171.5 121 Q 170.4 123.8 167 123 Q 168.3 126.3 163.5 125 L 160.5 127 L 153.5 127 Q 150.7 130.4 144 129 L 144 127 L 138 127 L 138 125 L 136 125 L 136 123 L 134 123 L 134 121 Q 131.3 122.1 132 119.5 L 129 114.5 L 129.5 113 L 128 112.5 L 128 110.5 L 125 100.5 L 125 98.5 Q 126.2 93.8 124 92.5 L 125 87.5 L 125.5 84 L 128 89.5 L 128 93.5 Q 126.6 100.9 130 103.5 L 130 105.5 L 133 112.5 L 140 121 L 147.5 125 L 161 125 Q 159.7 121.7 164.5 123 L 168 121 Q 166.9 118.3 169.5 119 L 173 117 L 173 115 L 175 115 L 175 113 L 177 113 L 177 111 L 179 111 L 179 109 L 181 109 L 181 107 Q 183.7 108.1 183 105.5 L 190 96.5 L 189.5 95 Q 191.8 95.8 191 93.5 L 197 83 Z " /><path fill="rgb(21,61,172)" stroke="rgb(21,61,172)" stroke-width="1" opacity="0.9803921568627451" d="M 54.5 34 L 55.5 36 L 56 34 Q 60.1 32.7 59 36 L 63 36 L 63 38 L 65 38 Q 63.9 40.7 66.5 40 L 65.5 42 L 63.5 42 L 59 46.5 Q 51.3 58.3 47.5 74 L 44 65.5 L 41 42.5 L 42 40 L 46 39.5 L 45.5 38 Q 49.3 39 48 36 L 51.5 36 L 54 35.5 L 54.5 34 Z " /><path fill="rgb(21,61,172)" stroke="rgb(21,61,172)" stroke-width="1" opacity="0.9803921568627451" d="M 188.5 61 L 189 62.5 L 188.5 67 L 187 67.5 L 189 68.5 L 187 69.5 L 187 73.5 L 186 75.5 L 186.5 77 L 185 77 L 185 81 L 183.5 81 L 183 83.5 L 178 95 L 176 95.5 L 176.5 97 L 173.5 99 L 173.5 101 L 170.5 103 L 170.5 105 L 167 105 L 165 109 L 161 109 L 161 110.5 L 160 110.5 L 159.5 109 L 159 111 L 152 111 L 152 109 L 148 109 Q 149 106 146 107 L 146 104.5 Q 156.8 89.3 160.5 67 Q 165 71.5 175.5 70 Q 183.8 68.3 188 62.5 L 188.5 61 Z " /><path fill="rgb(7,167,199)" stroke="rgb(7,167,199)" stroke-width="1" opacity="0.984313725490196" d="M 52 96 L 56 97.5 L 62.5 107 Q 65.1 106.2 64 109.5 L 62 112.5 L 63 117.5 Q 61.5 121.9 64.5 121 Q 73.8 132 90 135 L 90 137 L 94 137 L 94 138.5 L 95 141 L 84.5 147 L 80 147 L 80 145 Q 74.7 146.3 75.5 143 L 72.5 143 L 62.5 137 L 60 137 L 60 135 L 58 135 Q 59.1 132.3 56.5 133 Q 55.4 130.3 52 131 Q 53.1 128.3 50.5 129 L 50.5 127 L 48 127 L 48 125 L 46 125 L 46 123 L 44 123 Q 45.1 120.3 42.5 121 L 42.5 119 L 41 118.5 L 41.5 117 L 40 116.5 L 40.5 112 L 42 111.5 L 40 110.5 L 42 109.5 L 40 108.5 L 43 107.5 L 42.5 106 L 44 105.5 L 42 104.5 L 44 104 Q 42.8 101 46.5 102 L 46.5 100 L 50 100 L 52 96 Z " /><path fill="rgb(19,152,155)" stroke="rgb(19,152,155)" stroke-width="1" opacity="0.9764705882352941" d="M 110.5 10 L 116 10.5 L 115.5 12 L 118 12.5 L 117.5 14 L 119 14.5 L 118.5 16 L 120 16.5 L 118 20.5 Q 118.8 22.8 116.5 22 L 116.5 24 L 111 26 Q 112.1 28.7 109.5 28 L 103 17.5 L 107.5 12 L 110.5 10 Z " /><path fill="rgb(19,152,155)" stroke="rgb(19,152,155)" stroke-width="1" opacity="0.9764705882352941" d="M 191.5 47 L 192 50.5 L 191 50.5 L 191.5 47 Z " /><path fill="rgb(19,152,155)" stroke="rgb(19,152,155)" stroke-width="1" opacity="0.9764705882352941" d="M 79.5 84 L 80 93.5 L 79 96.5 L 78 104 L 76 104.5 L 76 106.5 Q 76.8 108.8 74.5 108 L 74 110.5 Q 74.8 112.8 72.5 112 L 72.5 115 Q 75.1 114.3 74 117 L 78 117 L 78 119 L 82 119 L 82.5 121 L 94.5 121 L 96 120.5 L 103 131.5 L 95.5 140 L 94 137 Q 88.7 138.2 89.5 135 L 86.5 135 L 84.5 133 L 77.5 131 L 63 121 L 62 116.5 L 63 111.5 L 64 108 Q 71.3 109.3 73 103.5 Q 77.8 95.3 79.5 84 Z " /><path fill="rgb(49,105,254)" stroke="rgb(49,105,254)" stroke-width="1" opacity="0.984313725490196" d="M 56.5 0 L 72.5 0 L 80.5 2 Q 93.1 6.4 101 15.5 L 113 37.5 L 122 68.5 L 122 75.5 L 121 80.5 L 122 83.5 L 122 89.5 Q 121.3 96.2 124 99.5 L 124 101.5 Q 122.2 107.8 125 109.5 L 125 111.5 L 126 113.5 L 126 115.5 L 128 123 Q 130.7 121.9 130 124.5 L 133 129 Q 137.1 127.7 136 131 L 140 131 L 140.5 133 L 150.5 133 L 163.5 128 L 165 128.5 L 165.5 127 L 171 127 L 171 125 L 173 125 Q 171.9 122.3 174.5 123 L 177 119 Q 179.7 120.1 179 117.5 L 181 113 Q 184 114.3 183 110.5 L 192.5 102 L 192 103.5 Q 184.9 126.9 168.5 141 Q 160.6 147.6 148.5 150 L 131.5 150 L 121 147 L 121 140.5 L 120 139.5 L 120 137.5 L 119 135.5 L 119 133.5 L 117 120.5 L 110 103.5 L 110 100.5 L 97 77.5 L 98 72.5 L 98 64.5 L 97 63.5 L 97 59.5 L 93 44 Q 90 45.3 91 41.5 L 83.5 32 Q 81.3 32.8 82 30.5 L 78 23.5 Q 80.5 22 77 20.5 L 75 16 L 73 16 Q 74.1 13.3 71.5 14 L 64.5 10 L 62.5 10 L 53.5 12 L 46 16 L 45.5 18 L 39 18 Q 40.3 14.7 35.5 16 L 33 15 L 36.5 10 Q 44.4 2.9 56.5 0 Z " /><path fill="rgb(40,92,230)" stroke="rgb(40,92,230)" stroke-width="1" opacity="0.9764705882352941" d="M 53.5 20 L 65.5 20 L 74 26.5 L 82 40.5 L 82 42.5 L 88 52.5 L 91 64.5 L 91 66.5 Q 90 72.5 93 74.5 L 93 76.5 L 95 86.5 L 95 88.5 L 106 112.5 L 112 140.5 L 110.5 140 L 105 135.5 L 103 132.5 Q 106.5 131 104 129.5 L 101 114.5 L 91 93.5 L 91 91.5 Q 92.8 85.3 90 83.5 L 90 81.5 L 89 79.5 L 89 77.5 L 87 64.5 L 80 47.5 L 80 45.5 L 77 36 L 75 35.5 L 75 33.5 L 75 32 L 73 32 L 73 30 L 71 30 L 71 28 L 69 28 Q 70.1 25.3 67.5 26 L 65.5 24 L 56.5 23 L 44.5 26 L 36.5 31 L 33 26.5 L 34.5 26 L 36.5 26 L 47.5 22 L 51.5 22 L 53.5 20 Z " /><path fill="rgb(40,92,230)" stroke="rgb(40,92,230)" stroke-width="1" opacity="0.9764705882352941" d="M 192 24 L 197 26.5 L 198 31.5 L 206 44.5 L 206 46.5 L 203 67.5 L 199 83 Q 196.3 81.9 197 84.5 L 191 95 L 189 95.5 L 190 96.5 L 187 99.5 L 183 107 L 181 107 L 181 109 L 179 109 L 179 111 L 177 111 L 177 113 L 175 113 L 175 115 L 173 115 Q 174.1 117.7 171.5 117 L 168 119 Q 169.1 121.7 166.5 121 Q 165.3 124 161 123 L 160.5 125 L 147.5 125 L 140 121 L 133 112.5 L 129 104.5 L 129 102.5 L 127 92.5 L 129 92 L 134 107 L 136 107.5 L 136 109.5 L 138 115 L 140 115 Q 138.9 117.7 141.5 117 L 147.5 121 L 154.5 122 L 159.5 121 L 163 121 L 163 119 L 167 119 L 167 117 L 170 117 Q 168.9 114.3 171.5 115 L 175.5 110 L 180 106.5 L 183 101 Q 185.7 102.1 185 99.5 L 192 88.5 L 191.5 87 Q 194.5 87.9 193 83.5 L 199 72.5 L 199 70.5 Q 198.4 65.9 201 64.5 L 201 62.5 L 201 52.5 L 200 51.5 L 200 49.5 L 199 47.5 L 199 45.5 L 198 41.5 L 198.5 40 L 197 39.5 L 197 37.5 L 196 35.5 L 196.5 34 Q 193.5 34.9 195 30.5 L 192 24 Z " /></svg>